# xmcd
#
# Track frame offsets: 
#        150
#        14940
#        25195
#        34780
#        45290
#        58035
#        73580
#        91585
#        106915
#        122797
#        134800
#        147285
#        159788
#        172368
#
# Disc length: 2458 seconds
#
# Revision: 0
# Processed by: cddbd v1.5.1PL0 Copyright (c) Steve Scherf et al.
# Submitted via: ExactAudioCopy v0.95a5
#
DISCID=c209980e
DTITLE=Jack Jersey -  - The Best of Jack Jersey
DYEAR=1994
DGENRE=Beat
TTITLE0=Jack Jersey - Papa was a poor man
TTITLE1=Jack Jersey - Silvery moon
TTITLE2=Jack Jersey - Rub it in
TTITLE3=Jack Jersey - In the still of the night
TTITLE4=Jack Jersey - Mary Lee
TTITLE5=Jack Jersey - A broken heart with a smile
TTITLE6=Jack Jersey - Sri Lanka My Shangri La
TTITLE7=Jack Jersey - Blue Brown eyed Lady
TTITLE8=Jack Jersey - I'm calling
TTITLE9=Jack Jersey - She was dinamite
TTITLE10=Jack Jersey - Me and Bobby MacGee
TTITLE11=Jack Jersey - On this night
TTITLE12=Jack Jersey - Lonely Me
TTITLE13=Jack Jersey - Gone Girl
EXTD=
EXTT0=
EXTT1=
EXTT2=
EXTT3=
EXTT4=
EXTT5=
EXTT6=
EXTT7=
EXTT8=
EXTT9=
EXTT10=
EXTT11=
EXTT12=
EXTT13=
PLAYORDER=
